<svg class="tally-logo" xmlns="http://www.w3.org/2000/svg" xmlns:xlink="http://www.w3.org/1999/xlink" width="100%" zoomAndPan="magnify" viewBox="320 270 800 316" height="100%" preserveAspectRatio="xMidYMid meet" version="1.0"><defs><g/><clipPath id="b667b0c2ce"><path d="M 900.5625 312.480469 L 1113.496094 312.480469 L 1113.496094 525.417969 L 900.5625 525.417969 Z M 900.5625 312.480469 " clip-rule="nonzero"/></clipPath><clipPath id="268afabfb9"><path d="M 1113.496094 418.949219 C 1079.957031 408.011719 1053.699219 366.082031 1046.859375 312.480469 C 1041.996094 350.679688 1027.242188 382.953125 1007.03125 402.324219 C 986.816406 382.953125 972.0625 350.730469 967.199219 312.480469 C 960.359375 366.082031 934.101562 408.011719 900.5625 418.949219 C 934.101562 429.882812 960.359375 471.816406 967.199219 525.417969 C 972.0625 487.214844 986.816406 454.941406 1007.03125 435.574219 C 1027.242188 454.941406 1041.996094 487.167969 1046.859375 525.417969 C 1053.699219 471.816406 1079.957031 429.882812 1113.496094 418.949219 Z M 1113.496094 418.949219 " clip-rule="nonzero"/></clipPath><clipPath id="21084b1790"><path d="M 0.5625 0.480469 L 213.496094 0.480469 L 213.496094 213.417969 L 0.5625 213.417969 Z M 0.5625 0.480469 " clip-rule="nonzero"/></clipPath><clipPath id="dc14ae6822"><path d="M 213.496094 106.949219 C 179.957031 96.011719 153.699219 54.082031 146.859375 0.480469 C 141.996094 38.679688 127.242188 70.953125 107.03125 90.324219 C 86.816406 70.953125 72.0625 38.730469 67.199219 0.480469 C 60.359375 54.082031 34.101562 96.011719 0.5625 106.949219 C 34.101562 117.882812 60.359375 159.816406 67.199219 213.417969 C 72.0625 175.214844 86.816406 142.941406 107.03125 123.574219 C 127.242188 142.941406 141.996094 175.167969 146.859375 213.417969 C 153.699219 159.816406 179.957031 117.882812 213.496094 106.949219 Z M 213.496094 106.949219 " clip-rule="nonzero"/></clipPath><clipPath id="3ce56fafa8"><rect x="0" width="214" y="0" height="214"/></clipPath><clipPath id="8c0887d2f4"><rect x="0" width="557" y="0" height="424"/></clipPath></defs><g clip-path="url(#b667b0c2ce)"><g clip-path="url(#268afabfb9)"><g transform="matrix(1, 0, 0, 1, 900, 312)"><g clip-path="url(#3ce56fafa8)"><g clip-path="url(#21084b1790)"><g clip-path="url(#dc14ae6822)"><path fill="var(--sky)" d="M 0.5625 0.480469 L 213.496094 0.480469 L 213.496094 213.417969 L 0.5625 213.417969 Z M 0.5625 0.480469 " fill-opacity="1" fill-rule="nonzero"/></g></g></g></g></g></g><g transform="matrix(1, 0, 0, 1, 326, 193)"><g clip-path="url(#8c0887d2f4)"><g fill="var(--cream)" fill-opacity="1"><g transform="translate(0.501972, 321.844212)"><g><path d="M 38.140625 0 C 34.898438 0 33.28125 -1.1875 33.28125 -3.5625 C 33.28125 -5.925781 34.679688 -7.21875 37.484375 -7.4375 L 52.03125 -9.703125 C 56.34375 -10.347656 59.25 -11.476562 60.75 -13.09375 C 62.257812 -14.707031 63.015625 -17.773438 63.015625 -22.296875 L 63.015625 -216.21875 C 63.015625 -219.226562 62.367188 -221.378906 61.078125 -222.671875 C 59.785156 -223.960938 57.09375 -224.609375 53 -224.609375 C 45.03125 -224.609375 37.164062 -221.160156 29.40625 -214.265625 C 21.65625 -207.378906 16.59375 -196.285156 14.21875 -180.984375 L 12.609375 -170.3125 C 12.171875 -167.519531 10.660156 -166.125 8.078125 -166.125 C 4.847656 -166.125 3.445312 -167.953125 3.875 -171.609375 L 6.78125 -230.109375 C 7.21875 -235.066406 9.160156 -237.546875 12.609375 -237.546875 C 14.109375 -237.546875 15.503906 -237.164062 16.796875 -236.40625 C 18.097656 -235.65625 20.3125 -234.847656 23.4375 -233.984375 C 26.5625 -233.117188 31.566406 -232.6875 38.453125 -232.6875 L 110.53125 -232.6875 C 117.425781 -232.6875 122.4375 -233.117188 125.5625 -233.984375 C 128.6875 -234.847656 130.945312 -235.65625 132.34375 -236.40625 C 133.75 -237.164062 135.097656 -237.546875 136.390625 -237.546875 C 139.835938 -237.546875 141.773438 -235.066406 142.203125 -230.109375 L 145.109375 -171.609375 C 145.535156 -167.953125 144.132812 -166.125 140.90625 -166.125 C 138.320312 -166.125 136.816406 -167.519531 136.390625 -170.3125 L 134.765625 -180.984375 C 132.609375 -196.285156 127.648438 -207.378906 119.890625 -214.265625 C 112.140625 -221.160156 104.171875 -224.609375 95.984375 -224.609375 C 91.890625 -224.609375 89.195312 -223.960938 87.90625 -222.671875 C 86.613281 -221.378906 85.96875 -219.226562 85.96875 -216.21875 L 85.96875 -22.296875 C 85.96875 -17.773438 86.773438 -14.707031 88.390625 -13.09375 C 90.003906 -11.476562 92.859375 -10.347656 96.953125 -9.703125 L 111.5 -7.4375 C 114.300781 -7.21875 115.703125 -5.925781 115.703125 -3.5625 C 115.703125 -1.1875 114.085938 0 110.859375 0 Z M 38.140625 0 "/></g></g></g><g fill="var(--cream)" fill-opacity="1"><g transform="translate(149.48803, 321.844212)"><g><path d="M 38.78125 2.90625 C 29.726562 2.90625 22.289062 0.0507812 16.46875 -5.65625 C 10.65625 -11.363281 7.75 -18.957031 7.75 -28.4375 C 7.75 -37.707031 10.65625 -46.488281 16.46875 -54.78125 C 22.289062 -63.070312 30.265625 -70.554688 40.390625 -77.234375 C 50.523438 -83.921875 62.054688 -89.3125 74.984375 -93.40625 C 77.785156 -94.257812 79.1875 -96.085938 79.1875 -98.890625 L 79.1875 -128.3125 C 79.1875 -138.644531 77.566406 -146.019531 74.328125 -150.4375 C 71.097656 -154.851562 66.679688 -157.0625 61.078125 -157.0625 C 55.691406 -157.0625 50.789062 -154.640625 46.375 -149.796875 C 41.957031 -144.953125 38.78125 -136.816406 36.84375 -125.390625 C 35.769531 -118.503906 33.453125 -113.5 29.890625 -110.375 C 26.335938 -107.25 22.726562 -105.6875 19.0625 -105.6875 C 13.03125 -105.6875 10.015625 -108.703125 10.015625 -114.734375 C 10.015625 -120.984375 11.789062 -127.175781 15.34375 -133.3125 C 18.90625 -139.457031 23.59375 -145.0625 29.40625 -150.125 C 35.226562 -155.1875 41.582031 -159.222656 48.46875 -162.234375 C 55.363281 -165.253906 62.257812 -166.765625 69.15625 -166.765625 C 90.488281 -166.765625 101.15625 -154.375 101.15625 -129.59375 L 101.15625 -30.703125 C 101.15625 -21.648438 103.414062 -17.125 107.9375 -17.125 C 110.738281 -17.125 113.320312 -19.007812 115.6875 -22.78125 C 118.0625 -26.550781 119.25 -32.960938 119.25 -42.015625 C 119.25 -45.460938 120.648438 -47.1875 123.453125 -47.1875 C 126.035156 -47.1875 127.328125 -45.351562 127.328125 -41.6875 C 127.328125 -25.957031 124.582031 -14.59375 119.09375 -7.59375 C 113.601562 -0.59375 107.410156 2.90625 100.515625 2.90625 C 95.335938 2.90625 91.238281 0.804688 88.21875 -3.390625 C 85.207031 -7.597656 83.164062 -12.609375 82.09375 -18.421875 C 81.875 -20.578125 80.957031 -21.707031 79.34375 -21.8125 C 77.726562 -21.925781 76.164062 -20.90625 74.65625 -18.75 C 69.488281 -11.632812 64.207031 -6.242188 58.8125 -2.578125 C 53.425781 1.078125 46.75 2.90625 38.78125 2.90625 Z M 47.515625 -11.953125 C 53.109375 -11.953125 58.273438 -13.945312 63.015625 -17.9375 C 67.753906 -21.925781 71.632812 -27.257812 74.65625 -33.9375 C 77.675781 -40.613281 79.1875 -48.15625 79.1875 -56.5625 L 79.1875 -80.15625 C 79.1875 -84.25 76.921875 -85.429688 72.390625 -83.703125 C 59.242188 -78.960938 49.0625 -72.441406 41.84375 -64.140625 C 34.632812 -55.847656 31.03125 -45.890625 31.03125 -34.265625 C 31.03125 -19.390625 36.523438 -11.953125 47.515625 -11.953125 Z M 47.515625 -11.953125 "/></g></g></g><g fill="var(--cream)" fill-opacity="1"><g transform="translate(278.436914, 321.844212)"><g><path d="M 6.46875 0 C 3.875 0 2.578125 -1.1875 2.578125 -3.5625 C 2.578125 -5.707031 3.765625 -7 6.140625 -7.4375 L 10.671875 -8.078125 C 15.191406 -8.722656 18.53125 -10.015625 20.6875 -11.953125 C 22.84375 -13.890625 23.921875 -17.125 23.921875 -21.65625 L 23.921875 -206.84375 C 23.921875 -210.71875 23.328125 -213.410156 22.140625 -214.921875 C 20.953125 -216.429688 18.851562 -217.289062 15.84375 -217.5 L 8.40625 -218.46875 C 6.03125 -218.90625 4.84375 -220.203125 4.84375 -222.359375 C 4.84375 -224.503906 6.03125 -225.796875 8.40625 -226.234375 C 14.4375 -227.523438 19.601562 -229.03125 23.90625 -230.75 C 28.21875 -232.476562 31.773438 -234.203125 34.578125 -235.921875 C 38.023438 -238.078125 40.613281 -239.15625 42.34375 -239.15625 C 44.707031 -239.15625 45.890625 -237.429688 45.890625 -233.984375 L 45.890625 -21.65625 C 45.890625 -17.125 46.585938 -13.941406 47.984375 -12.109375 C 49.390625 -10.285156 52.351562 -9.050781 56.875 -8.40625 L 64.3125 -7.4375 C 66.6875 -7 67.875 -5.707031 67.875 -3.5625 C 67.875 -1.1875 66.578125 0 63.984375 0 Z M 6.46875 0 "/></g></g></g><g fill="var(--cream)" fill-opacity="1"><g transform="translate(349.536535, 321.844212)"><g><path d="M 6.46875 0 C 3.875 0 2.578125 -1.1875 2.578125 -3.5625 C 2.578125 -5.707031 3.765625 -7 6.140625 -7.4375 L 10.671875 -8.078125 C 15.191406 -8.722656 18.53125 -10.015625 20.6875 -11.953125 C 22.84375 -13.890625 23.921875 -17.125 23.921875 -21.65625 L 23.921875 -206.84375 C 23.921875 -210.71875 23.328125 -213.410156 22.140625 -214.921875 C 20.953125 -216.429688 18.851562 -217.289062 15.84375 -217.5 L 8.40625 -218.46875 C 6.03125 -218.90625 4.84375 -220.203125 4.84375 -222.359375 C 4.84375 -224.503906 6.03125 -225.796875 8.40625 -226.234375 C 14.4375 -227.523438 19.601562 -229.03125 23.90625 -230.75 C 28.21875 -232.476562 31.773438 -234.203125 34.578125 -235.921875 C 38.023438 -238.078125 40.613281 -239.15625 42.34375 -239.15625 C 44.707031 -239.15625 45.890625 -237.429688 45.890625 -233.984375 L 45.890625 -21.65625 C 45.890625 -17.125 46.585938 -13.941406 47.984375 -12.109375 C 49.390625 -10.285156 52.351562 -9.050781 56.875 -8.40625 L 64.3125 -7.4375 C 66.6875 -7 67.875 -5.707031 67.875 -3.5625 C 67.875 -1.1875 66.578125 0 63.984375 0 Z M 6.46875 0 "/></g></g></g><g fill="var(--cream)" fill-opacity="1"><g transform="translate(420.636156, 321.844212)"><g><path d="M 26.828125 66.25 C 21.003906 66.25 16.367188 64.253906 12.921875 60.265625 C 9.472656 56.285156 7.75 51.707031 7.75 46.53125 C 7.75 42.445312 8.929688 39.003906 11.296875 36.203125 C 13.671875 33.398438 16.90625 32 21 32 C 24.445312 32 26.925781 32.75 28.4375 34.25 C 29.945312 35.757812 31.023438 37.484375 31.671875 39.421875 C 32.316406 41.367188 32.960938 43.09375 33.609375 44.59375 C 34.253906 46.101562 35.546875 46.859375 37.484375 46.859375 C 39.859375 46.859375 42.015625 45.1875 43.953125 41.84375 C 45.890625 38.507812 48.582031 31.457031 52.03125 20.6875 C 54.1875 14.21875 55.53125 8.613281 56.0625 3.875 C 56.601562 -0.863281 56.5 -5.925781 55.75 -11.3125 C 55 -16.695312 53.328125 -23.269531 50.734375 -31.03125 L 15.515625 -143.171875 C 14.003906 -148.335938 12.546875 -151.675781 11.140625 -153.1875 C 9.742188 -154.695312 7.539062 -155.773438 4.53125 -156.421875 L -0.328125 -157.390625 C -3.128906 -158.035156 -4.53125 -159.4375 -4.53125 -161.59375 C -4.53125 -163.75 -3.019531 -164.828125 0 -164.828125 L 53.328125 -164.828125 C 56.335938 -164.828125 57.84375 -163.75 57.84375 -161.59375 C 57.84375 -159.21875 56.445312 -157.816406 53.65625 -157.390625 L 48.484375 -156.75 C 43.304688 -156.101562 40.015625 -154.863281 38.609375 -153.03125 C 37.210938 -151.195312 37.269531 -147.910156 38.78125 -143.171875 L 67.21875 -48.484375 C 67.863281 -46.328125 68.882812 -45.25 70.28125 -45.25 C 71.6875 -45.25 72.710938 -46.328125 73.359375 -48.484375 L 100.828125 -137.359375 C 102.554688 -143.171875 103.039062 -147.53125 102.28125 -150.4375 C 101.53125 -153.351562 98.460938 -155.238281 93.078125 -156.09375 L 86.296875 -157.390625 C 83.492188 -158.035156 82.09375 -159.4375 82.09375 -161.59375 C 82.09375 -163.75 83.597656 -164.828125 86.609375 -164.828125 L 127.65625 -164.828125 C 130.675781 -164.828125 132.1875 -163.640625 132.1875 -161.265625 C 132.1875 -159.109375 130.894531 -157.601562 128.3125 -156.75 L 125.390625 -155.78125 C 122.160156 -154.695312 119.46875 -152.753906 117.3125 -149.953125 C 115.15625 -147.148438 112.894531 -142.304688 110.53125 -135.421875 L 62.375 14.859375 C 57.632812 29.941406 53.378906 41.144531 49.609375 48.46875 C 45.835938 55.800781 42.226562 60.597656 38.78125 62.859375 C 35.332031 65.117188 31.347656 66.25 26.828125 66.25 Z M 26.828125 66.25 "/></g></g></g></g></g></svg>